<?xml version="1.0" standalone="no"?>
<!DOCTYPE svg PUBLIC "-//W3C//DTD SVG 20010904//EN"
 "http://www.w3.org/TR/2001/REC-SVG-20010904/DTD/svg10.dtd">
<svg version="1.0" xmlns="http://www.w3.org/2000/svg"
 width="567.000000pt" height="283.000000pt" viewBox="0 0 567.000000 283.000000"
 preserveAspectRatio="xMidYMid meet">

<g transform="translate(0.000000,283.000000) scale(0.100000,-0.100000)"
fill="#000000" stroke="none">
<path d="M696 1914 c-17 -16 -20 -27 -16 -59 3 -32 20 -45 56 -45 23 0 38 7
49 22 14 21 14 23 -2 29 -10 4 -21 5 -25 2 -17 -9 -29 9 -17 24 10 11 10 16 0
23 -11 6 -11 9 0 13 8 3 5 6 -8 6 -12 1 -29 -6 -37 -15z"/>
<path d="M906 1914 c-22 -21 -20 -67 2 -87 24 -22 65 -21 85 1 18 20 23 37 8
27 -5 -3 -12 -1 -16 4 -3 6 -12 8 -20 4 -17 -6 -19 6 -5 41 9 23 7 26 -15 26
-13 0 -31 -7 -39 -16z"/>
<path d="M496 1405 c5 -11 2 -13 -10 -9 -9 4 -16 1 -16 -6 0 -8 -11 -10 -32
-6 -18 3 -27 3 -19 0 11 -5 11 -8 0 -15 -9 -5 -1 -7 21 -4 19 2 36 9 38 15 2
5 8 8 13 4 5 -3 12 2 15 10 3 9 11 13 17 9 6 -3 7 -1 3 5 -11 18 -36 15 -30
-3z"/>
<path d="M1049 1390 c-5 -38 -3 -45 16 -45 11 0 19 -5 18 -12 -2 -8 4 -10 14
-6 11 4 14 3 9 -6 -5 -7 -2 -10 6 -9 7 2 12 -2 11 -8 -1 -6 4 -11 12 -11 8 0
11 7 7 16 -9 28 -23 40 -38 34 -8 -3 -15 0 -15 6 -3 26 -4 30 -12 38 -5 4 -7
4 -5 -2 2 -5 -1 -10 -7 -10 -5 0 -9 6 -7 13 2 6 0 12 -3 12 -3 0 -6 -4 -6 -10z"/>
<path d="M626 985 c10 -8 24 -14 29 -14 6 0 1 6 -9 14 -11 8 -24 15 -30 15 -5
0 -1 -7 10 -15z"/>
</g>
</svg>
